<?xml version="1.0" encoding="utf-8" standalone="no"?>
<!DOCTYPE svg PUBLIC "-//W3C//DTD SVG 1.1//EN"
  "http://www.w3.org/Graphics/SVG/1.1/DTD/svg11.dtd">
<svg xmlns:xlink="http://www.w3.org/1999/xlink" width="501.5725pt" height="212.956152pt" viewBox="0 0 501.5725 212.956152" xmlns="http://www.w3.org/2000/svg" version="1.1">
 <metadata>
  <rdf:RDF xmlns:dc="http://purl.org/dc/elements/1.1/" xmlns:cc="http://creativecommons.org/ns#" xmlns:rdf="http://www.w3.org/1999/02/22-rdf-syntax-ns#">
   <cc:Work>
    <dc:type rdf:resource="http://purl.org/dc/dcmitype/StillImage"/>
    <dc:date>2026-10-02T03:38:22.787330</dc:date>
    <dc:format>image/svg+xml</dc:format>
    <dc:creator>
     <cc:Agent>
      <dc:title>Matplotlib v3.10.8, https://matplotlib.org/</dc:title>
     </cc:Agent>
    </dc:creator>
   </cc:Work>
  </rdf:RDF>
 </metadata>
 <defs>
  <style type="text/css">*{stroke-linejoin: round; stroke-linecap: butt}</style>
 </defs>
 <g id="figure_1">
  <g id="patch_1">
   <path d="M 0 212.956152 
L 501.5725 212.956152 
L 501.5725 0 
L 0 0 
z
" style="fill: #ffffff"/>
  </g>
  <g id="axes_1">
   <g id="patch_2">
    <path d="M 46.4525 175.094824 
L 494.3725 175.094824 
L 494.3725 9.575536 
L 46.4525 9.575536 
z
" style="fill: #ffffff"/>
   </g>
   <g id="matplotlib.axis_1">
    <g id="xtick_1">
     <g id="line2d_1">
      <defs>
       <path id="mcc86ed9848" d="M 0 0 
L 0 3.5 
" style="stroke: #000000; stroke-width: 0.8"/>
      </defs>
      <g>
       <use xlink:href="#mcc86ed9848" x="71.233356" y="175.094824" style="stroke: #000000; stroke-width: 0.8"/>
      </g>
     </g>
     <g id="text_1">
      <!-- 45 -->
      <g transform="translate(66.233356 189.033886) scale(0.1 -0.1)">
       <defs>
        <path id="LiberationSerif-34" d="M 2531 922 
L 2531 0 
L 1994 0 
L 1994 922 
L 125 922 
L 125 1338 
L 2172 4213 
L 2531 4213 
L 2531 1369 
L 3100 1369 
L 3100 922 
L 2531 922 
z
M 1994 3478 
L 1978 3478 
L 478 1369 
L 1994 1369 
L 1994 3478 
z
" transform="scale(0.015625)"/>
        <path id="LiberationSerif-35" d="M 1516 2450 
Q 2241 2450 2595 2153 
Q 2950 1856 2950 1247 
Q 2950 616 2565 276 
Q 2181 -63 1466 -63 
Q 872 -63 406 72 
L 372 953 
L 578 953 
L 719 366 
Q 856 291 1048 244 
Q 1241 197 1416 197 
Q 1909 197 2142 430 
Q 2375 663 2375 1216 
Q 2375 1603 2275 1801 
Q 2175 2000 1956 2094 
Q 1738 2188 1369 2188 
Q 1084 2188 813 2113 
L 513 2113 
L 513 4191 
L 2638 4191 
L 2638 3713 
L 794 3713 
L 794 2375 
Q 1131 2450 1516 2450 
z
" transform="scale(0.015625)"/>
       </defs>
       <use xlink:href="#LiberationSerif-34"/>
       <use xlink:href="#LiberationSerif-35" transform="translate(50 0)"/>
      </g>
     </g>
    </g>
    <g id="xtick_2">
     <g id="line2d_2">
      <g>
       <use xlink:href="#mcc86ed9848" x="128.065735" y="175.094824" style="stroke: #000000; stroke-width: 0.8"/>
      </g>
     </g>
     <g id="text_2">
      <!-- 50 -->
      <g transform="translate(123.065735 189.033886) scale(0.1 -0.1)">
       <defs>
        <path id="LiberationSerif-30" d="M 2956 2113 
Q 2956 -63 1581 -63 
Q 919 -63 581 493 
Q 244 1050 244 2113 
Q 244 3153 581 3704 
Q 919 4256 1606 4256 
Q 2269 4256 2612 3711 
Q 2956 3166 2956 2113 
z
M 2381 2113 
Q 2381 3119 2190 3562 
Q 2000 4006 1581 4006 
Q 1175 4006 997 3587 
Q 819 3169 819 2113 
Q 819 1050 1000 617 
Q 1181 184 1581 184 
Q 1994 184 2187 639 
Q 2381 1094 2381 2113 
z
" transform="scale(0.015625)"/>
       </defs>
       <use xlink:href="#LiberationSerif-35"/>
       <use xlink:href="#LiberationSerif-30" transform="translate(50 0)"/>
      </g>
     </g>
    </g>
    <g id="xtick_3">
     <g id="line2d_3">
      <g>
       <use xlink:href="#mcc86ed9848" x="184.898115" y="175.094824" style="stroke: #000000; stroke-width: 0.8"/>
      </g>
     </g>
     <g id="text_3">
      <!-- 55 -->
      <g transform="translate(179.898115 189.033886) scale(0.1 -0.1)">
       <use xlink:href="#LiberationSerif-35"/>
       <use xlink:href="#LiberationSerif-35" transform="translate(50 0)"/>
      </g>
     </g>
    </g>
    <g id="xtick_4">
     <g id="line2d_4">
      <g>
       <use xlink:href="#mcc86ed9848" x="241.730494" y="175.094824" style="stroke: #000000; stroke-width: 0.8"/>
      </g>
     </g>
     <g id="text_4">
      <!-- 60 -->
      <g transform="translate(236.730494 189.033886) scale(0.1 -0.1)">
       <defs>
        <path id="LiberationSerif-36" d="M 3009 1300 
Q 3009 647 2679 292 
Q 2350 -63 1728 -63 
Q 1022 -63 648 487 
Q 275 1038 275 2069 
Q 275 2744 472 3234 
Q 669 3725 1023 3981 
Q 1378 4238 1844 4238 
Q 2300 4238 2753 4128 
L 2753 3406 
L 2547 3406 
L 2438 3834 
Q 2334 3891 2159 3933 
Q 1984 3975 1844 3975 
Q 1388 3975 1133 3533 
Q 878 3091 853 2241 
Q 1363 2509 1875 2509 
Q 2428 2509 2718 2198 
Q 3009 1888 3009 1300 
z
M 1716 184 
Q 2094 184 2262 429 
Q 2431 675 2431 1241 
Q 2431 1753 2270 1981 
Q 2109 2209 1759 2209 
Q 1331 2209 850 2053 
Q 850 1100 1065 642 
Q 1281 184 1716 184 
z
" transform="scale(0.015625)"/>
       </defs>
       <use xlink:href="#LiberationSerif-36"/>
       <use xlink:href="#LiberationSerif-30" transform="translate(50 0)"/>
      </g>
     </g>
    </g>
    <g id="xtick_5">
     <g id="line2d_5">
      <g>
       <use xlink:href="#mcc86ed9848" x="298.562873" y="175.094824" style="stroke: #000000; stroke-width: 0.8"/>
      </g>
     </g>
     <g id="text_5">
      <!-- 65 -->
      <g transform="translate(293.562873 189.033886) scale(0.1 -0.1)">
       <use xlink:href="#LiberationSerif-36"/>
       <use xlink:href="#LiberationSerif-35" transform="translate(50 0)"/>
      </g>
     </g>
    </g>
    <g id="xtick_6">
     <g id="line2d_6">
      <g>
       <use xlink:href="#mcc86ed9848" x="355.395252" y="175.094824" style="stroke: #000000; stroke-width: 0.8"/>
      </g>
     </g>
     <g id="text_6">
      <!-- 70 -->
      <g transform="translate(350.395252 189.033886) scale(0.1 -0.1)">
       <defs>
        <path id="LiberationSerif-37" d="M 628 3200 
L 422 3200 
L 422 4191 
L 3016 4191 
L 3016 3950 
L 1147 0 
L 744 0 
L 2578 3713 
L 738 3713 
L 628 3200 
z
" transform="scale(0.015625)"/>
       </defs>
       <use xlink:href="#LiberationSerif-37"/>
       <use xlink:href="#LiberationSerif-30" transform="translate(50 0)"/>
      </g>
     </g>
    </g>
    <g id="xtick_7">
     <g id="line2d_7">
      <g>
       <use xlink:href="#mcc86ed9848" x="412.227631" y="175.094824" style="stroke: #000000; stroke-width: 0.8"/>
      </g>
     </g>
     <g id="text_7">
      <!-- 75 -->
      <g transform="translate(407.227631 189.033886) scale(0.1 -0.1)">
       <use xlink:href="#LiberationSerif-37"/>
       <use xlink:href="#LiberationSerif-35" transform="translate(50 0)"/>
      </g>
     </g>
    </g>
    <g id="xtick_8">
     <g id="line2d_8">
      <g>
       <use xlink:href="#mcc86ed9848" x="469.06001" y="175.094824" style="stroke: #000000; stroke-width: 0.8"/>
      </g>
     </g>
     <g id="text_8">
      <!-- 80 -->
      <g transform="translate(464.06001 189.033886) scale(0.1 -0.1)">
       <defs>
        <path id="LiberationSerif-38" d="M 2828 3169 
Q 2828 2825 2661 2586 
Q 2494 2347 2209 2222 
Q 2566 2091 2761 1811 
Q 2956 1531 2956 1131 
Q 2956 538 2622 237 
Q 2288 -63 1581 -63 
Q 244 -63 244 1131 
Q 244 1547 444 1820 
Q 644 2094 984 2222 
Q 713 2347 542 2584 
Q 372 2822 372 3169 
Q 372 3688 689 3972 
Q 1006 4256 1606 4256 
Q 2188 4256 2508 3973 
Q 2828 3691 2828 3169 
z
M 2394 1131 
Q 2394 1631 2198 1856 
Q 2003 2081 1581 2081 
Q 1169 2081 987 1867 
Q 806 1653 806 1131 
Q 806 603 990 393 
Q 1175 184 1581 184 
Q 1997 184 2195 401 
Q 2394 619 2394 1131 
z
M 2266 3169 
Q 2266 3600 2097 3803 
Q 1928 4006 1588 4006 
Q 1256 4006 1095 3809 
Q 934 3613 934 3169 
Q 934 2734 1090 2545 
Q 1247 2356 1588 2356 
Q 1938 2356 2102 2548 
Q 2266 2741 2266 3169 
z
" transform="scale(0.015625)"/>
       </defs>
       <use xlink:href="#LiberationSerif-38"/>
       <use xlink:href="#LiberationSerif-30" transform="translate(50 0)"/>
      </g>
     </g>
    </g>
    <g id="text_9">
     <!-- 100 nm器件FF / % -->
     <g transform="translate(225.845508 203.307011) scale(0.115 -0.115)">
      <defs>
       <path id="LiberationSerif-31" d="M 1959 250 
L 2816 166 
L 2816 0 
L 563 0 
L 563 166 
L 1422 250 
L 1422 3669 
L 575 3366 
L 575 3531 
L 1797 4225 
L 1959 4225 
L 1959 250 
z
" transform="scale(0.015625)"/>
       <path id="LiberationSerif-20" transform="scale(0.015625)"/>
       <path id="LiberationSerif-6e" d="M 1013 2700 
Q 1253 2838 1525 2927 
Q 1797 3016 1978 3016 
Q 2359 3016 2553 2794 
Q 2747 2572 2747 2150 
L 2747 219 
L 3103 141 
L 3103 0 
L 1838 0 
L 1838 141 
L 2228 219 
L 2228 2094 
Q 2228 2353 2101 2501 
Q 1975 2650 1709 2650 
Q 1428 2650 1019 2559 
L 1019 219 
L 1416 141 
L 1416 0 
L 147 0 
L 147 141 
L 500 219 
L 500 2719 
L 147 2797 
L 147 2938 
L 984 2938 
L 1013 2700 
z
" transform="scale(0.015625)"/>
       <path id="LiberationSerif-6d" d="M 1019 2700 
Q 1253 2834 1515 2925 
Q 1778 3016 1978 3016 
Q 2194 3016 2376 2934 
Q 2559 2853 2650 2675 
Q 2891 2809 3214 2912 
Q 3538 3016 3750 3016 
Q 4500 3016 4500 2150 
L 4500 219 
L 4878 141 
L 4878 0 
L 3544 0 
L 3544 141 
L 3981 219 
L 3981 2094 
Q 3981 2631 3481 2631 
Q 3400 2631 3292 2618 
Q 3184 2606 3076 2590 
Q 2969 2575 2870 2554 
Q 2772 2534 2706 2522 
Q 2759 2353 2759 2150 
L 2759 219 
L 3200 141 
L 3200 0 
L 1806 0 
L 1806 141 
L 2241 219 
L 2241 2094 
Q 2241 2353 2108 2492 
Q 1975 2631 1709 2631 
Q 1434 2631 1025 2541 
L 1025 219 
L 1466 141 
L 1466 0 
L 134 0 
L 134 141 
L 506 219 
L 506 2719 
L 134 2797 
L 134 2938 
L 994 2938 
L 1019 2700 
z
" transform="scale(0.015625)"/>
       <path id="NotoSerifSC-Regular-5668" d="M 3885 3469 
Q 4173 3418 4352 3331 
Q 4531 3245 4614 3145 
Q 4698 3046 4710 2953 
Q 4723 2861 4681 2797 
Q 4640 2733 4560 2717 
Q 4480 2701 4384 2758 
Q 4307 2912 4140 3104 
Q 3974 3296 3814 3411 
L 3885 3469 
z
M 3712 2688 
Q 4102 2304 4707 2048 
Q 5312 1792 6240 1683 
L 6227 1613 
Q 6138 1581 6080 1472 
Q 6022 1363 5997 1203 
Q 5376 1363 4937 1574 
Q 4499 1786 4188 2051 
Q 3878 2317 3629 2637 
L 3712 2688 
z
M 3418 3251 
Q 3373 3142 3168 3162 
Q 2938 2765 2547 2374 
Q 2157 1984 1587 1657 
Q 1018 1331 230 1101 
L 179 1184 
Q 883 1453 1395 1827 
Q 1907 2202 2259 2630 
Q 2611 3059 2816 3482 
L 3418 3251 
z
M 5581 3072 
Q 5581 3072 5635 3027 
Q 5690 2982 5779 2912 
Q 5869 2842 5965 2762 
Q 6061 2682 6138 2605 
Q 6112 2502 5971 2502 
L 339 2502 
L 282 2688 
L 5267 2688 
L 5581 3072 
z
M 4934 1478 
L 5165 1728 
L 5677 1338 
Q 5645 1299 5571 1264 
Q 5498 1229 5402 1210 
L 5402 -262 
Q 5402 -282 5344 -314 
Q 5286 -346 5206 -371 
Q 5126 -397 5062 -397 
L 4998 -397 
L 4998 1478 
L 4934 1478 
z
M 3878 -378 
Q 3878 -397 3830 -429 
Q 3782 -461 3705 -483 
Q 3629 -506 3546 -506 
L 3482 -506 
L 3482 1478 
L 3482 1670 
L 3482 1670 
L 3910 1478 
L 5190 1478 
L 5190 1286 
L 3878 1286 
L 3878 -378 
z
M 5203 115 
L 5203 -77 
L 3667 -77 
L 3667 115 
L 5203 115 
z
M 2381 1478 
L 2611 1722 
L 3117 1338 
Q 3085 1299 3011 1267 
Q 2938 1235 2842 1216 
L 2842 -224 
Q 2842 -243 2787 -275 
Q 2733 -307 2656 -336 
Q 2579 -365 2509 -365 
L 2445 -365 
L 2445 1478 
L 2381 1478 
z
M 1389 -410 
Q 1389 -429 1341 -457 
Q 1293 -486 1219 -512 
Q 1146 -538 1056 -538 
L 998 -538 
L 998 1478 
L 998 1549 
L 1107 1619 
L 1421 1478 
L 2675 1478 
L 2675 1286 
L 1389 1286 
L 1389 -410 
z
M 2656 115 
L 2656 -77 
L 1210 -77 
L 1210 115 
L 2656 115 
z
M 5062 4973 
L 5299 5229 
L 5805 4832 
Q 5779 4794 5702 4758 
Q 5626 4723 5530 4704 
L 5530 3373 
Q 5530 3360 5472 3328 
Q 5414 3296 5337 3270 
Q 5261 3245 5190 3245 
L 5126 3245 
L 5126 4973 
L 5062 4973 
z
M 3942 3424 
Q 3942 3411 3891 3379 
Q 3840 3347 3766 3321 
Q 3693 3296 3603 3296 
L 3546 3296 
L 3546 4973 
L 3546 5158 
L 3546 5158 
L 3974 4973 
L 5293 4973 
L 5293 4781 
L 3942 4781 
L 3942 3424 
z
M 5331 3738 
L 5331 3552 
L 3693 3552 
L 3693 3738 
L 5331 3738 
z
M 2374 4973 
L 2598 5222 
L 3104 4832 
Q 3072 4800 2998 4765 
Q 2925 4730 2835 4710 
L 2835 3482 
Q 2835 3462 2777 3430 
Q 2720 3398 2643 3372 
Q 2566 3347 2496 3347 
L 2438 3347 
L 2438 4973 
L 2374 4973 
z
M 1312 3219 
Q 1312 3200 1264 3168 
Q 1216 3136 1139 3110 
Q 1062 3085 979 3085 
L 922 3085 
L 922 4973 
L 922 5165 
L 922 5165 
L 1344 4973 
L 2650 4973 
L 2650 4781 
L 1312 4781 
L 1312 3219 
z
M 2656 3738 
L 2656 3552 
L 1114 3552 
L 1114 3738 
L 2656 3738 
z
" transform="scale(0.015625)"/>
       <path id="NotoSerifSC-Regular-4ef6" d="M 1837 2131 
L 5331 2131 
L 5638 2515 
Q 5638 2515 5692 2470 
Q 5747 2426 5836 2355 
Q 5926 2285 6022 2201 
Q 6118 2118 6195 2042 
Q 6170 1939 6029 1939 
L 1888 1939 
L 1837 2131 
z
M 2707 5024 
L 3360 4819 
Q 3341 4768 3283 4729 
Q 3226 4691 3123 4698 
Q 2925 4019 2611 3433 
Q 2298 2848 1901 2445 
L 1811 2509 
Q 2003 2822 2176 3222 
Q 2349 3622 2486 4083 
Q 2624 4544 2707 5024 
z
M 3802 5293 
L 4461 5216 
Q 4448 5152 4400 5104 
Q 4352 5056 4224 5037 
L 4224 -333 
Q 4224 -365 4176 -403 
Q 4128 -442 4051 -467 
Q 3974 -493 3885 -493 
L 3802 -493 
L 3802 5293 
z
M 2566 3878 
L 5165 3878 
L 5466 4262 
Q 5466 4262 5520 4217 
Q 5574 4173 5660 4102 
Q 5747 4032 5840 3952 
Q 5933 3872 6010 3789 
Q 5990 3686 5843 3686 
L 2566 3686 
L 2566 3878 
z
M 1101 3475 
L 1299 3731 
L 1709 3578 
Q 1696 3533 1651 3504 
Q 1606 3475 1523 3456 
L 1523 -352 
Q 1523 -371 1468 -403 
Q 1414 -435 1337 -464 
Q 1261 -493 1178 -493 
L 1101 -493 
L 1101 3475 
z
M 1632 5357 
L 2285 5133 
Q 2266 5082 2208 5046 
Q 2150 5011 2042 5018 
Q 1830 4442 1561 3904 
Q 1293 3366 976 2905 
Q 659 2445 307 2099 
L 218 2163 
Q 486 2547 752 3062 
Q 1018 3578 1248 4166 
Q 1478 4755 1632 5357 
z
" transform="scale(0.015625)"/>
       <path id="LiberationSerif-46" d="M 1325 1881 
L 1325 250 
L 2022 166 
L 2022 0 
L 225 0 
L 225 166 
L 722 250 
L 722 3944 
L 184 4025 
L 184 4191 
L 3328 4191 
L 3328 3188 
L 3122 3188 
L 3022 3866 
Q 2672 3909 2009 3909 
L 1325 3909 
L 1325 2163 
L 2559 2163 
L 2656 2663 
L 2847 2663 
L 2847 1375 
L 2656 1375 
L 2559 1881 
L 1325 1881 
z
" transform="scale(0.015625)"/>
       <path id="LiberationSerif-2f" d="M 313 -63 
L 0 -63 
L 1472 4219 
L 1778 4219 
L 313 -63 
z
" transform="scale(0.015625)"/>
       <path id="LiberationSerif-25" d="M 1375 -63 
L 1031 -63 
L 3994 4256 
L 4341 4256 
L 1375 -63 
z
M 2253 3109 
Q 2253 1947 1222 1947 
Q 719 1947 469 2244 
Q 219 2541 219 3109 
Q 219 4256 1241 4256 
Q 1738 4256 1995 3968 
Q 2253 3681 2253 3109 
z
M 1766 3109 
Q 1766 3584 1636 3804 
Q 1506 4025 1222 4025 
Q 950 4025 826 3817 
Q 703 3609 703 3109 
Q 703 2597 828 2386 
Q 953 2175 1222 2175 
Q 1503 2175 1634 2398 
Q 1766 2622 1766 3109 
z
M 5113 1081 
Q 5113 -84 4084 -84 
Q 3581 -84 3329 212 
Q 3078 509 3078 1081 
Q 3078 1638 3331 1933 
Q 3584 2228 4103 2228 
Q 4600 2228 4856 1940 
Q 5113 1653 5113 1081 
z
M 4628 1081 
Q 4628 1556 4498 1776 
Q 4369 1997 4084 1997 
Q 3813 1997 3689 1789 
Q 3566 1581 3566 1081 
Q 3566 569 3691 358 
Q 3816 147 4084 147 
Q 4366 147 4497 370 
Q 4628 594 4628 1081 
z
" transform="scale(0.015625)"/>
      </defs>
      <use xlink:href="#LiberationSerif-31"/>
      <use xlink:href="#LiberationSerif-30" transform="translate(50 0)"/>
      <use xlink:href="#LiberationSerif-30" transform="translate(100 0)"/>
      <use xlink:href="#LiberationSerif-20" transform="translate(150 0)"/>
      <use xlink:href="#LiberationSerif-6e" transform="translate(175 0)"/>
      <use xlink:href="#LiberationSerif-6d" transform="translate(225 0)"/>
      <use xlink:href="#NotoSerifSC-Regular-5668" transform="translate(302.783203 0)"/>
      <use xlink:href="#NotoSerifSC-Regular-4ef6" transform="translate(402.783188 0)"/>
      <use xlink:href="#LiberationSerif-46" transform="translate(502.783173 0)"/>
      <use xlink:href="#LiberationSerif-46" transform="translate(558.398407 0)"/>
      <use xlink:href="#LiberationSerif-20" transform="translate(614.013641 0)"/>
      <use xlink:href="#LiberationSerif-2f" transform="translate(639.013641 0)"/>
      <use xlink:href="#LiberationSerif-20" transform="translate(666.796844 0)"/>
      <use xlink:href="#LiberationSerif-25" transform="translate(691.796844 0)"/>
     </g>
    </g>
   </g>
   <g id="matplotlib.axis_2">
    <g id="ytick_1">
     <g id="line2d_9">
      <defs>
       <path id="m9e20ed4f93" d="M 0 0 
L -3.5 0 
" style="stroke: #000000; stroke-width: 0.8"/>
      </defs>
      <g>
       <use xlink:href="#m9e20ed4f93" x="46.4525" y="174.968576" style="stroke: #000000; stroke-width: 0.8"/>
      </g>
     </g>
     <g id="text_10">
      <!-- 0.08 -->
      <g transform="translate(21.9525 178.438107) scale(0.1 -0.1)">
       <defs>
        <path id="LiberationSerif-2e" d="M 1178 288 
Q 1178 134 1070 21 
Q 963 -91 800 -91 
Q 638 -91 530 21 
Q 422 134 422 288 
Q 422 447 531 556 
Q 641 666 800 666 
Q 959 666 1068 556 
Q 1178 447 1178 288 
z
" transform="scale(0.015625)"/>
       </defs>
       <use xlink:href="#LiberationSerif-30"/>
       <use xlink:href="#LiberationSerif-2e" transform="translate(50 0)"/>
       <use xlink:href="#LiberationSerif-30" transform="translate(75 0)"/>
       <use xlink:href="#LiberationSerif-38" transform="translate(125 0)"/>
      </g>
     </g>
    </g>
    <g id="ytick_2">
     <g id="line2d_10">
      <g>
       <use xlink:href="#m9e20ed4f93" x="46.4525" y="151.497284" style="stroke: #000000; stroke-width: 0.8"/>
      </g>
     </g>
     <g id="text_11">
      <!-- 0.10 -->
      <g transform="translate(21.9525 154.966815) scale(0.1 -0.1)">
       <use xlink:href="#LiberationSerif-30"/>
       <use xlink:href="#LiberationSerif-2e" transform="translate(50 0)"/>
       <use xlink:href="#LiberationSerif-31" transform="translate(75 0)"/>
       <use xlink:href="#LiberationSerif-30" transform="translate(125 0)"/>
      </g>
     </g>
    </g>
    <g id="ytick_3">
     <g id="line2d_11">
      <g>
       <use xlink:href="#m9e20ed4f93" x="46.4525" y="128.025992" style="stroke: #000000; stroke-width: 0.8"/>
      </g>
     </g>
     <g id="text_12">
      <!-- 0.12 -->
      <g transform="translate(21.9525 131.495523) scale(0.1 -0.1)">
       <defs>
        <path id="LiberationSerif-32" d="M 2847 0 
L 281 0 
L 281 459 
L 863 988 
Q 1422 1478 1684 1781 
Q 1947 2084 2061 2406 
Q 2175 2728 2175 3144 
Q 2175 3550 1990 3762 
Q 1806 3975 1388 3975 
Q 1222 3975 1047 3929 
Q 872 3884 738 3809 
L 628 3297 
L 422 3297 
L 422 4103 
Q 991 4238 1388 4238 
Q 2075 4238 2420 3952 
Q 2766 3666 2766 3144 
Q 2766 2794 2630 2483 
Q 2494 2172 2212 1864 
Q 1931 1556 1281 1003 
Q 1003 766 691 481 
L 2847 481 
L 2847 0 
z
" transform="scale(0.015625)"/>
       </defs>
       <use xlink:href="#LiberationSerif-30"/>
       <use xlink:href="#LiberationSerif-2e" transform="translate(50 0)"/>
       <use xlink:href="#LiberationSerif-31" transform="translate(75 0)"/>
       <use xlink:href="#LiberationSerif-32" transform="translate(125 0)"/>
      </g>
     </g>
    </g>
    <g id="ytick_4">
     <g id="line2d_12">
      <g>
       <use xlink:href="#m9e20ed4f93" x="46.4525" y="104.5547" style="stroke: #000000; stroke-width: 0.8"/>
      </g>
     </g>
     <g id="text_13">
      <!-- 0.14 -->
      <g transform="translate(21.9525 108.024231) scale(0.1 -0.1)">
       <use xlink:href="#LiberationSerif-30"/>
       <use xlink:href="#LiberationSerif-2e" transform="translate(50 0)"/>
       <use xlink:href="#LiberationSerif-31" transform="translate(75 0)"/>
       <use xlink:href="#LiberationSerif-34" transform="translate(125 0)"/>
      </g>
     </g>
    </g>
    <g id="ytick_5">
     <g id="line2d_13">
      <g>
       <use xlink:href="#m9e20ed4f93" x="46.4525" y="81.083407" style="stroke: #000000; stroke-width: 0.8"/>
      </g>
     </g>
     <g id="text_14">
      <!-- 0.16 -->
      <g transform="translate(21.9525 84.552939) scale(0.1 -0.1)">
       <use xlink:href="#LiberationSerif-30"/>
       <use xlink:href="#LiberationSerif-2e" transform="translate(50 0)"/>
       <use xlink:href="#LiberationSerif-31" transform="translate(75 0)"/>
       <use xlink:href="#LiberationSerif-36" transform="translate(125 0)"/>
      </g>
     </g>
    </g>
    <g id="ytick_6">
     <g id="line2d_14">
      <g>
       <use xlink:href="#m9e20ed4f93" x="46.4525" y="57.612115" style="stroke: #000000; stroke-width: 0.8"/>
      </g>
     </g>
     <g id="text_15">
      <!-- 0.18 -->
      <g transform="translate(21.9525 61.081647) scale(0.1 -0.1)">
       <use xlink:href="#LiberationSerif-30"/>
       <use xlink:href="#LiberationSerif-2e" transform="translate(50 0)"/>
       <use xlink:href="#LiberationSerif-31" transform="translate(75 0)"/>
       <use xlink:href="#LiberationSerif-38" transform="translate(125 0)"/>
      </g>
     </g>
    </g>
    <g id="ytick_7">
     <g id="line2d_15">
      <g>
       <use xlink:href="#m9e20ed4f93" x="46.4525" y="34.140823" style="stroke: #000000; stroke-width: 0.8"/>
      </g>
     </g>
     <g id="text_16">
      <!-- 0.20 -->
      <g transform="translate(21.9525 37.610355) scale(0.1 -0.1)">
       <use xlink:href="#LiberationSerif-30"/>
       <use xlink:href="#LiberationSerif-2e" transform="translate(50 0)"/>
       <use xlink:href="#LiberationSerif-32" transform="translate(75 0)"/>
       <use xlink:href="#LiberationSerif-30" transform="translate(125 0)"/>
      </g>
     </g>
    </g>
    <g id="ytick_8">
     <g id="line2d_16">
      <g>
       <use xlink:href="#m9e20ed4f93" x="46.4525" y="10.669531" style="stroke: #000000; stroke-width: 0.8"/>
      </g>
     </g>
     <g id="text_17">
      <!-- 0.22 -->
      <g transform="translate(21.9525 14.139062) scale(0.1 -0.1)">
       <use xlink:href="#LiberationSerif-30"/>
       <use xlink:href="#LiberationSerif-2e" transform="translate(50 0)"/>
       <use xlink:href="#LiberationSerif-32" transform="translate(75 0)"/>
       <use xlink:href="#LiberationSerif-32" transform="translate(125 0)"/>
      </g>
     </g>
    </g>
    <g id="text_18">
     <!-- 五厚度拟合 K / V nm⁻¹ -->
     <g transform="translate(15.503359 147.867601) rotate(-90) scale(0.115 -0.115)">
      <defs>
       <path id="NotoSerifSC-Regular-4e94" d="M 646 4627 
L 4851 4627 
L 5184 5043 
Q 5184 5043 5245 4995 
Q 5306 4947 5398 4873 
Q 5491 4800 5593 4710 
Q 5696 4621 5773 4544 
Q 5754 4448 5606 4448 
L 704 4448 
L 646 4627 
z
M 243 96 
L 5229 96 
L 5562 525 
Q 5562 525 5622 477 
Q 5683 429 5779 349 
Q 5875 269 5980 176 
Q 6086 83 6170 6 
Q 6144 -96 5990 -96 
L 301 -96 
L 243 96 
z
M 2733 4627 
L 3174 4627 
Q 3104 4250 3008 3782 
Q 2912 3315 2803 2803 
Q 2694 2291 2582 1788 
Q 2470 1286 2361 828 
Q 2253 371 2163 13 
L 1728 13 
Q 1824 378 1933 838 
Q 2042 1299 2157 1801 
Q 2272 2304 2377 2813 
Q 2483 3322 2576 3789 
Q 2669 4256 2733 4627 
z
M 928 2726 
L 4659 2726 
L 4659 2541 
L 986 2541 
L 928 2726 
z
M 4352 2726 
L 4288 2726 
L 4531 2989 
L 5043 2592 
Q 5011 2554 4940 2518 
Q 4870 2483 4768 2464 
L 4768 0 
L 4352 0 
L 4352 2726 
z
" transform="scale(0.015625)"/>
       <path id="NotoSerifSC-Regular-539a" d="M 2266 3437 
L 5069 3437 
L 5069 3251 
L 2266 3251 
L 2266 3437 
z
M 2259 2720 
L 5056 2720 
L 5056 2528 
L 2259 2528 
L 2259 2720 
z
M 4864 4154 
L 4806 4154 
L 5037 4416 
L 5555 4019 
Q 5523 3981 5449 3945 
Q 5376 3910 5280 3891 
L 5280 2458 
Q 5280 2438 5219 2409 
Q 5158 2381 5078 2355 
Q 4998 2330 4928 2330 
L 4864 2330 
L 4864 4154 
z
M 2061 4154 
L 2061 4358 
L 2061 4358 
L 2509 4154 
L 5088 4154 
L 5088 3968 
L 2470 3968 
L 2470 2368 
Q 2470 2355 2419 2320 
Q 2368 2285 2291 2259 
Q 2214 2234 2125 2234 
L 2061 2234 
L 2061 4154 
z
M 1280 1024 
L 5306 1024 
L 5613 1402 
Q 5613 1402 5667 1357 
Q 5722 1312 5808 1241 
Q 5894 1171 5990 1091 
Q 6086 1011 6157 941 
Q 6150 890 6108 864 
Q 6067 838 5997 838 
L 1338 838 
L 1280 1024 
z
M 1818 2035 
L 5050 2035 
L 5050 1850 
L 1875 1850 
L 1818 2035 
z
M 3462 1485 
L 4102 1421 
Q 4090 1350 4038 1312 
Q 3987 1274 3878 1261 
L 3878 115 
Q 3878 -51 3833 -179 
Q 3789 -307 3638 -384 
Q 3488 -461 3174 -499 
Q 3155 -397 3126 -323 
Q 3098 -250 3021 -198 
Q 2944 -147 2800 -108 
Q 2656 -70 2419 -38 
L 2419 58 
Q 2419 58 2537 51 
Q 2656 45 2813 32 
Q 2970 19 3114 12 
Q 3258 6 3309 6 
Q 3405 6 3433 35 
Q 3462 64 3462 134 
L 3462 1485 
z
M 4934 2035 
L 4858 2035 
L 5133 2291 
L 5594 1869 
Q 5523 1811 5318 1811 
Q 5107 1734 4844 1648 
Q 4582 1562 4300 1478 
Q 4019 1395 3757 1338 
L 3629 1338 
Q 3853 1427 4102 1555 
Q 4352 1683 4576 1814 
Q 4800 1946 4934 2035 
z
M 973 4877 
L 973 4934 
L 973 5101 
L 1466 4877 
L 1389 4877 
L 1389 3296 
Q 1389 2867 1357 2374 
Q 1325 1882 1225 1376 
Q 1126 870 912 390 
Q 698 -90 333 -499 
L 230 -429 
Q 570 122 726 742 
Q 883 1363 928 2012 
Q 973 2662 973 3296 
L 973 4877 
z
M 1120 4877 
L 5216 4877 
L 5536 5274 
Q 5536 5274 5593 5226 
Q 5651 5178 5744 5104 
Q 5837 5030 5939 4947 
Q 6042 4864 6125 4787 
Q 6099 4685 5952 4685 
L 1120 4685 
L 1120 4877 
z
" transform="scale(0.015625)"/>
       <path id="NotoSerifSC-Regular-5ea6" d="M 2874 5446 
Q 3194 5389 3389 5293 
Q 3584 5197 3680 5078 
Q 3776 4960 3785 4851 
Q 3795 4742 3747 4668 
Q 3699 4595 3606 4579 
Q 3514 4563 3398 4627 
Q 3328 4819 3152 5036 
Q 2976 5254 2810 5402 
L 2874 5446 
z
M 896 4595 
L 896 4749 
L 1389 4531 
L 1312 4531 
L 1312 2925 
Q 1312 2522 1283 2070 
Q 1254 1619 1161 1161 
Q 1069 704 867 272 
Q 666 -160 320 -525 
L 218 -454 
Q 525 38 669 601 
Q 813 1165 854 1753 
Q 896 2342 896 2918 
L 896 4531 
L 896 4595 
z
M 5542 4928 
Q 5542 4928 5600 4883 
Q 5658 4838 5747 4764 
Q 5837 4691 5936 4608 
Q 6035 4525 6112 4448 
Q 6093 4346 5946 4346 
L 1075 4346 
L 1075 4531 
L 5229 4531 
L 5542 4928 
z
M 4742 1741 
L 4742 1555 
L 1843 1555 
L 1786 1741 
L 4742 1741 
z
M 4531 1741 
L 4838 2003 
L 5286 1574 
Q 5242 1530 5181 1517 
Q 5120 1504 4992 1498 
Q 4403 659 3385 176 
Q 2368 -307 941 -493 
L 902 -384 
Q 1766 -211 2492 73 
Q 3219 358 3760 777 
Q 4301 1197 4608 1741 
L 4531 1741 
z
M 2400 1741 
Q 2630 1306 2998 992 
Q 3366 678 3852 470 
Q 4339 262 4931 137 
Q 5523 13 6189 -38 
L 6189 -109 
Q 6048 -134 5955 -233 
Q 5862 -333 5830 -493 
Q 4954 -358 4266 -108 
Q 3578 141 3085 573 
Q 2592 1005 2298 1670 
L 2400 1741 
z
M 5446 3834 
Q 5446 3834 5532 3760 
Q 5619 3686 5740 3577 
Q 5862 3469 5958 3373 
Q 5939 3270 5792 3270 
L 1510 3270 
L 1459 3462 
L 5158 3462 
L 5446 3834 
z
M 4416 2496 
L 4416 2304 
L 2650 2304 
L 2650 2496 
L 4416 2496 
z
M 4864 4096 
Q 4858 4032 4803 3987 
Q 4749 3942 4634 3930 
L 4634 2157 
Q 4634 2131 4582 2099 
Q 4531 2067 4457 2044 
Q 4384 2022 4301 2022 
L 4224 2022 
L 4224 4166 
L 4864 4096 
z
M 3078 4096 
Q 3072 4032 3021 3987 
Q 2970 3942 2848 3930 
L 2848 2080 
Q 2848 2054 2800 2022 
Q 2752 1990 2675 1968 
Q 2598 1946 2522 1946 
L 2445 1946 
L 2445 4166 
L 3078 4096 
z
" transform="scale(0.015625)"/>
       <path id="NotoSerifSC-Regular-62df" d="M 3200 4538 
Q 3187 4467 3129 4422 
Q 3072 4378 2957 4358 
L 2957 4122 
L 2554 4122 
L 2554 4499 
L 2554 4608 
L 3200 4538 
z
M 2464 838 
Q 2630 928 2928 1097 
Q 3226 1267 3603 1497 
Q 3981 1728 4371 1978 
L 4429 1894 
Q 4250 1747 3981 1510 
Q 3712 1274 3385 998 
Q 3059 723 2688 435 
L 2464 838 
z
M 2861 4346 
L 2957 4288 
L 2957 864 
L 2637 736 
L 2816 909 
Q 2874 768 2854 649 
Q 2835 531 2780 454 
Q 2726 378 2675 352 
L 2355 877 
Q 2490 966 2522 1011 
Q 2554 1056 2554 1152 
L 2554 4346 
L 2861 4346 
z
M 5856 5018 
Q 5843 4954 5792 4909 
Q 5741 4864 5626 4845 
Q 5619 4243 5603 3686 
Q 5587 3130 5520 2630 
Q 5453 2131 5293 1676 
Q 5133 1222 4835 828 
Q 4538 435 4067 92 
Q 3597 -250 2906 -538 
L 2829 -422 
Q 3571 -58 4028 380 
Q 4486 819 4729 1331 
Q 4973 1843 5069 2428 
Q 5165 3014 5177 3680 
Q 5190 4346 5190 5088 
L 5856 5018 
z
M 4922 1370 
Q 5325 1107 5577 854 
Q 5830 602 5961 381 
Q 6093 160 6125 -9 
Q 6157 -179 6115 -281 
Q 6074 -384 5981 -403 
Q 5888 -422 5773 -326 
Q 5702 -77 5542 220 
Q 5382 518 5193 809 
Q 5005 1101 4838 1325 
L 4922 1370 
z
M 3462 5101 
Q 3808 4832 4013 4563 
Q 4218 4294 4314 4064 
Q 4410 3834 4416 3651 
Q 4422 3469 4368 3360 
Q 4314 3251 4214 3238 
Q 4115 3226 4000 3334 
Q 3981 3603 3881 3916 
Q 3782 4230 3644 4528 
Q 3507 4826 3373 5062 
L 3462 5101 
z
M 224 2029 
Q 403 2093 742 2217 
Q 1082 2342 1517 2515 
Q 1952 2688 2406 2867 
L 2438 2784 
Q 2118 2586 1651 2301 
Q 1184 2016 582 1683 
Q 570 1626 538 1578 
Q 506 1530 461 1510 
L 224 2029 
z
M 1811 5293 
Q 1798 5229 1744 5184 
Q 1690 5139 1574 5126 
L 1574 128 
Q 1574 -45 1536 -173 
Q 1498 -301 1363 -381 
Q 1229 -461 947 -493 
Q 941 -390 912 -307 
Q 883 -224 819 -173 
Q 755 -115 636 -76 
Q 518 -38 326 -13 
L 326 96 
Q 326 96 416 89 
Q 506 83 634 70 
Q 762 58 874 51 
Q 986 45 1030 45 
Q 1114 45 1146 73 
Q 1178 102 1178 173 
L 1178 5363 
L 1811 5293 
z
M 2022 4269 
Q 2022 4269 2102 4198 
Q 2182 4128 2294 4032 
Q 2406 3936 2490 3840 
Q 2464 3738 2323 3738 
L 339 3738 
L 288 3923 
L 1766 3923 
L 2022 4269 
z
" transform="scale(0.015625)"/>
       <path id="NotoSerifSC-Regular-5408" d="M 1370 1875 
L 1370 2086 
L 1370 2086 
L 1837 1875 
L 4883 1875 
L 4883 1690 
L 1798 1690 
L 1798 -352 
Q 1798 -371 1747 -403 
Q 1696 -435 1613 -464 
Q 1530 -493 1440 -493 
L 1370 -493 
L 1370 1875 
z
M 4602 1875 
L 4531 1875 
L 4774 2138 
L 5306 1734 
Q 5274 1696 5200 1661 
Q 5126 1626 5030 1600 
L 5030 -307 
Q 5030 -326 4966 -358 
Q 4902 -390 4819 -416 
Q 4736 -442 4666 -442 
L 4602 -442 
L 4602 1875 
z
M 1536 173 
L 4858 173 
L 4858 -19 
L 1536 -19 
L 1536 173 
z
M 1690 3066 
L 3904 3066 
L 4205 3437 
Q 4205 3437 4259 3395 
Q 4314 3354 4400 3283 
Q 4486 3213 4582 3133 
Q 4678 3053 4762 2982 
Q 4736 2880 4589 2880 
L 1741 2880 
L 1690 3066 
z
M 3315 5024 
Q 3098 4678 2762 4320 
Q 2426 3962 2022 3622 
Q 1619 3283 1168 2995 
Q 717 2707 262 2496 
L 218 2592 
Q 621 2822 1049 3158 
Q 1478 3494 1859 3881 
Q 2240 4269 2528 4665 
Q 2816 5062 2944 5402 
L 3693 5222 
Q 3680 5171 3619 5145 
Q 3558 5120 3437 5107 
Q 3648 4800 3949 4525 
Q 4250 4250 4608 4003 
Q 4966 3757 5369 3545 
Q 5773 3334 6195 3162 
L 6182 3072 
Q 6093 3053 6009 3001 
Q 5926 2950 5875 2880 
Q 5824 2810 5798 2733 
Q 5280 2995 4797 3353 
Q 4314 3712 3930 4134 
Q 3546 4557 3315 5024 
z
" transform="scale(0.015625)"/>
       <path id="LiberationSerif-4b" d="M 4228 4191 
L 4228 4025 
L 3744 3944 
L 2313 2544 
L 4103 250 
L 4556 166 
L 4556 0 
L 3531 0 
L 1891 2119 
L 1325 1666 
L 1325 250 
L 1925 166 
L 1925 0 
L 184 0 
L 184 166 
L 722 250 
L 722 3944 
L 184 4025 
L 184 4191 
L 1863 4191 
L 1863 4025 
L 1325 3944 
L 1325 1969 
L 3331 3944 
L 2916 4025 
L 2916 4191 
L 4228 4191 
z
" transform="scale(0.015625)"/>
       <path id="LiberationSerif-56" d="M 4550 4191 
L 4550 4025 
L 4091 3944 
L 2406 -97 
L 2247 -97 
L 544 3944 
L 72 4025 
L 72 4191 
L 1766 4191 
L 1766 4025 
L 1203 3944 
L 2472 859 
L 3738 3944 
L 3188 4025 
L 3188 4191 
L 4550 4191 
z
" transform="scale(0.015625)"/>
       <path id="NotoSerif-Regular-207b" d="M 211 3578 
L 211 3866 
L 2304 3866 
L 2304 3578 
L 211 3578 
z
" transform="scale(0.015625)"/>
       <path id="LiberationSerif-b9" d="M 1172 1869 
L 1691 1825 
L 1691 1672 
L 206 1672 
L 206 1825 
L 722 1869 
L 722 3822 
L 219 3641 
L 219 3788 
L 947 4206 
L 1172 4206 
L 1172 1869 
z
" transform="scale(0.015625)"/>
      </defs>
      <use xlink:href="#NotoSerifSC-Regular-4e94"/>
      <use xlink:href="#NotoSerifSC-Regular-539a" transform="translate(99.999985 0)"/>
      <use xlink:href="#NotoSerifSC-Regular-5ea6" transform="translate(199.999969 0)"/>
      <use xlink:href="#NotoSerifSC-Regular-62df" transform="translate(299.999954 0)"/>
      <use xlink:href="#NotoSerifSC-Regular-5408" transform="translate(399.999939 0)"/>
      <use xlink:href="#LiberationSerif-20" transform="translate(499.999924 0)"/>
      <use xlink:href="#LiberationSerif-4b" transform="translate(524.999924 0)"/>
      <use xlink:href="#LiberationSerif-20" transform="translate(597.216721 0)"/>
      <use xlink:href="#LiberationSerif-2f" transform="translate(622.216721 0)"/>
      <use xlink:href="#LiberationSerif-20" transform="translate(649.999924 0)"/>
      <use xlink:href="#LiberationSerif-56" transform="translate(673.249924 0)"/>
      <use xlink:href="#LiberationSerif-20" transform="translate(743.716721 0)"/>
      <use xlink:href="#LiberationSerif-6e" transform="translate(768.716721 0)"/>
      <use xlink:href="#LiberationSerif-6d" transform="translate(818.716721 0)"/>
      <use xlink:href="#NotoSerif-Regular-207b" transform="translate(896.499924 0)"/>
      <use xlink:href="#LiberationSerif-b9" transform="translate(935.799911 0)"/>
     </g>
    </g>
   </g>
   <g id="line2d_17">
    <path d="M 66.8125 167.57122 
L 149.79829 161.292984 
L 225.424451 154.0017 
L 288.857368 145.952143 
L 339.110554 137.325944 
L 377.724123 128.241226 
L 407.082067 118.634338 
L 429.505353 108.878864 
L 445.741359 98.630889 
L 456.857346 88.111782 
L 464.055914 77.283944 
L 468.485176 66.109792 
L 471.115427 54.613964 
L 472.642606 42.808394 
L 473.51691 30.644573 
L 474.0125 18.275233 
" clip-path="url(#pfc647f894f)" style="fill: none; stroke: #215b80; stroke-width: 1.5; stroke-linecap: square"/>
    <defs>
     <path id="m5e5a2fbe64" d="M 0 1.5 
C 0.397805 1.5 0.77937 1.341951 1.06066 1.06066 
C 1.341951 0.77937 1.5 0.397805 1.5 0 
C 1.5 -0.397805 1.341951 -0.77937 1.06066 -1.06066 
C 0.77937 -1.341951 0.397805 -1.5 0 -1.5 
C -0.397805 -1.5 -0.77937 -1.341951 -1.06066 -1.06066 
C -1.341951 -0.77937 -1.5 -0.397805 -1.5 0 
C -1.5 0.397805 -1.341951 0.77937 -1.06066 1.06066 
C -0.77937 1.341951 -0.397805 1.5 0 1.5 
z
" style="stroke: #215b80"/>
    </defs>
    <g clip-path="url(#pfc647f894f)">
     <use xlink:href="#m5e5a2fbe64" x="66.8125" y="167.57122" style="fill: #215b80; stroke: #215b80"/>
     <use xlink:href="#m5e5a2fbe64" x="149.79829" y="161.292984" style="fill: #215b80; stroke: #215b80"/>
     <use xlink:href="#m5e5a2fbe64" x="225.424451" y="154.0017" style="fill: #215b80; stroke: #215b80"/>
     <use xlink:href="#m5e5a2fbe64" x="288.857368" y="145.952143" style="fill: #215b80; stroke: #215b80"/>
     <use xlink:href="#m5e5a2fbe64" x="339.110554" y="137.325944" style="fill: #215b80; stroke: #215b80"/>
     <use xlink:href="#m5e5a2fbe64" x="377.724123" y="128.241226" style="fill: #215b80; stroke: #215b80"/>
     <use xlink:href="#m5e5a2fbe64" x="407.082067" y="118.634338" style="fill: #215b80; stroke: #215b80"/>
     <use xlink:href="#m5e5a2fbe64" x="429.505353" y="108.878864" style="fill: #215b80; stroke: #215b80"/>
     <use xlink:href="#m5e5a2fbe64" x="445.741359" y="98.630889" style="fill: #215b80; stroke: #215b80"/>
     <use xlink:href="#m5e5a2fbe64" x="456.857346" y="88.111782" style="fill: #215b80; stroke: #215b80"/>
     <use xlink:href="#m5e5a2fbe64" x="464.055914" y="77.283944" style="fill: #215b80; stroke: #215b80"/>
     <use xlink:href="#m5e5a2fbe64" x="468.485176" y="66.109792" style="fill: #215b80; stroke: #215b80"/>
     <use xlink:href="#m5e5a2fbe64" x="471.115427" y="54.613964" style="fill: #215b80; stroke: #215b80"/>
     <use xlink:href="#m5e5a2fbe64" x="472.642606" y="42.808394" style="fill: #215b80; stroke: #215b80"/>
     <use xlink:href="#m5e5a2fbe64" x="473.51691" y="30.644573" style="fill: #215b80; stroke: #215b80"/>
     <use xlink:href="#m5e5a2fbe64" x="474.0125" y="18.275233" style="fill: #215b80; stroke: #215b80"/>
    </g>
   </g>
   <g id="line2d_18">
    <path d="M 66.8125 161.47019 
L 149.79829 154.459843 
L 225.424451 146.62436 
L 288.857368 138.143004 
L 339.110554 129.194668 
L 377.724123 119.791125 
L 407.082067 109.929811 
L 429.505353 99.809697 
L 445.741359 89.344011 
L 456.857346 78.506678 
L 464.055914 67.357399 
L 468.485176 55.913499 
L 471.115427 44.151248 
L 472.642606 32.07558 
L 473.51691 19.637137 
" clip-path="url(#pfc647f894f)" style="fill: none; stroke: #087f8c; stroke-width: 1.5; stroke-linecap: square"/>
    <defs>
     <path id="m3171398bd3" d="M 0 1.5 
C 0.397805 1.5 0.77937 1.341951 1.06066 1.06066 
C 1.341951 0.77937 1.5 0.397805 1.5 0 
C 1.5 -0.397805 1.341951 -0.77937 1.06066 -1.06066 
C 0.77937 -1.341951 0.397805 -1.5 0 -1.5 
C -0.397805 -1.5 -0.77937 -1.341951 -1.06066 -1.06066 
C -1.341951 -0.77937 -1.5 -0.397805 -1.5 0 
C -1.5 0.397805 -1.341951 0.77937 -1.06066 1.06066 
C -0.77937 1.341951 -0.397805 1.5 0 1.5 
z
" style="stroke: #087f8c"/>
    </defs>
    <g clip-path="url(#pfc647f894f)">
     <use xlink:href="#m3171398bd3" x="66.8125" y="161.47019" style="fill: #087f8c; stroke: #087f8c"/>
     <use xlink:href="#m3171398bd3" x="149.79829" y="154.459843" style="fill: #087f8c; stroke: #087f8c"/>
     <use xlink:href="#m3171398bd3" x="225.424451" y="146.62436" style="fill: #087f8c; stroke: #087f8c"/>
     <use xlink:href="#m3171398bd3" x="288.857368" y="138.143004" style="fill: #087f8c; stroke: #087f8c"/>
     <use xlink:href="#m3171398bd3" x="339.110554" y="129.194668" style="fill: #087f8c; stroke: #087f8c"/>
     <use xlink:href="#m3171398bd3" x="377.724123" y="119.791125" style="fill: #087f8c; stroke: #087f8c"/>
     <use xlink:href="#m3171398bd3" x="407.082067" y="109.929811" style="fill: #087f8c; stroke: #087f8c"/>
     <use xlink:href="#m3171398bd3" x="429.505353" y="99.809697" style="fill: #087f8c; stroke: #087f8c"/>
     <use xlink:href="#m3171398bd3" x="445.741359" y="89.344011" style="fill: #087f8c; stroke: #087f8c"/>
     <use xlink:href="#m3171398bd3" x="456.857346" y="78.506678" style="fill: #087f8c; stroke: #087f8c"/>
     <use xlink:href="#m3171398bd3" x="464.055914" y="67.357399" style="fill: #087f8c; stroke: #087f8c"/>
     <use xlink:href="#m3171398bd3" x="468.485176" y="55.913499" style="fill: #087f8c; stroke: #087f8c"/>
     <use xlink:href="#m3171398bd3" x="471.115427" y="44.151248" style="fill: #087f8c; stroke: #087f8c"/>
     <use xlink:href="#m3171398bd3" x="472.642606" y="32.07558" style="fill: #087f8c; stroke: #087f8c"/>
     <use xlink:href="#m3171398bd3" x="473.51691" y="19.637137" style="fill: #087f8c; stroke: #087f8c"/>
    </g>
   </g>
   <g id="line2d_19">
    <path d="M 66.8125 152.27077 
L 149.79829 144.619966 
L 225.424451 136.187265 
L 288.857368 127.119648 
L 339.110554 117.749524 
L 377.724123 107.850528 
L 407.082067 97.695585 
L 429.505353 87.108153 
L 445.741359 76.189557 
L 456.857346 65.012071 
L 464.055914 53.490227 
L 468.485176 41.692561 
L 471.115427 29.561069 
L 472.642606 17.09914 
" clip-path="url(#pfc647f894f)" style="fill: none; stroke: #bd6a27; stroke-width: 1.5; stroke-linecap: square"/>
    <defs>
     <path id="me088ac469c" d="M 0 1.5 
C 0.397805 1.5 0.77937 1.341951 1.06066 1.06066 
C 1.341951 0.77937 1.5 0.397805 1.5 0 
C 1.5 -0.397805 1.341951 -0.77937 1.06066 -1.06066 
C 0.77937 -1.341951 0.397805 -1.5 0 -1.5 
C -0.397805 -1.5 -0.77937 -1.341951 -1.06066 -1.06066 
C -1.341951 -0.77937 -1.5 -0.397805 -1.5 0 
C -1.5 0.397805 -1.341951 0.77937 -1.06066 1.06066 
C -0.77937 1.341951 -0.397805 1.5 0 1.5 
z
" style="stroke: #bd6a27"/>
    </defs>
    <g clip-path="url(#pfc647f894f)">
     <use xlink:href="#me088ac469c" x="66.8125" y="152.27077" style="fill: #bd6a27; stroke: #bd6a27"/>
     <use xlink:href="#me088ac469c" x="149.79829" y="144.619966" style="fill: #bd6a27; stroke: #bd6a27"/>
     <use xlink:href="#me088ac469c" x="225.424451" y="136.187265" style="fill: #bd6a27; stroke: #bd6a27"/>
     <use xlink:href="#me088ac469c" x="288.857368" y="127.119648" style="fill: #bd6a27; stroke: #bd6a27"/>
     <use xlink:href="#me088ac469c" x="339.110554" y="117.749524" style="fill: #bd6a27; stroke: #bd6a27"/>
     <use xlink:href="#me088ac469c" x="377.724123" y="107.850528" style="fill: #bd6a27; stroke: #bd6a27"/>
     <use xlink:href="#me088ac469c" x="407.082067" y="97.695585" style="fill: #bd6a27; stroke: #bd6a27"/>
     <use xlink:href="#me088ac469c" x="429.505353" y="87.108153" style="fill: #bd6a27; stroke: #bd6a27"/>
     <use xlink:href="#me088ac469c" x="445.741359" y="76.189557" style="fill: #bd6a27; stroke: #bd6a27"/>
     <use xlink:href="#me088ac469c" x="456.857346" y="65.012071" style="fill: #bd6a27; stroke: #bd6a27"/>
     <use xlink:href="#me088ac469c" x="464.055914" y="53.490227" style="fill: #bd6a27; stroke: #bd6a27"/>
     <use xlink:href="#me088ac469c" x="468.485176" y="41.692561" style="fill: #bd6a27; stroke: #bd6a27"/>
     <use xlink:href="#me088ac469c" x="471.115427" y="29.561069" style="fill: #bd6a27; stroke: #bd6a27"/>
     <use xlink:href="#me088ac469c" x="472.642606" y="17.09914" style="fill: #bd6a27; stroke: #bd6a27"/>
    </g>
   </g>
   <g id="patch_3">
    <path d="M 46.4525 175.094824 
L 46.4525 9.575536 
" style="fill: none; stroke: #000000; stroke-width: 0.8; stroke-linejoin: miter; stroke-linecap: square"/>
   </g>
   <g id="patch_4">
    <path d="M 46.4525 175.094824 
L 494.3725 175.094824 
" style="fill: none; stroke: #000000; stroke-width: 0.8; stroke-linejoin: miter; stroke-linecap: square"/>
   </g>
   <g id="legend_1">
    <g id="patch_5">
     <path d="M 53.4525 60.236473 
L 150.94625 60.236473 
Q 152.94625 60.236473 152.94625 58.236473 
L 152.94625 16.575536 
Q 152.94625 14.575536 150.94625 14.575536 
L 53.4525 14.575536 
Q 51.4525 14.575536 51.4525 16.575536 
L 51.4525 58.236473 
Q 51.4525 60.236473 53.4525 60.236473 
z
" style="fill: #ffffff; opacity: 0.8; stroke: #cccccc; stroke-linejoin: miter"/>
    </g>
    <g id="line2d_20">
     <path d="M 55.4525 22.166161 
L 65.4525 22.166161 
L 75.4525 22.166161 
" style="fill: none; stroke: #215b80; stroke-width: 1.5; stroke-linecap: square"/>
     <g>
      <use xlink:href="#m5e5a2fbe64" x="65.4525" y="22.166161" style="fill: #215b80; stroke: #215b80"/>
     </g>
    </g>
    <g id="text_19">
     <!-- 40 mA/cm²阈值 -->
     <g transform="translate(83.4525 25.666161) scale(0.1 -0.1)">
      <defs>
       <path id="LiberationSerif-41" d="M 1441 166 
L 1441 0 
L 63 0 
L 63 166 
L 538 250 
L 1966 4225 
L 2559 4225 
L 4044 250 
L 4575 166 
L 4575 0 
L 2803 0 
L 2803 166 
L 3366 250 
L 2950 1459 
L 1300 1459 
L 878 250 
L 1441 166 
z
M 2113 3775 
L 1394 1741 
L 2853 1741 
L 2113 3775 
z
" transform="scale(0.015625)"/>
       <path id="LiberationSerif-63" d="M 2644 178 
Q 2491 66 2222 1 
Q 1953 -63 1672 -63 
Q 244 -63 244 1491 
Q 244 2225 608 2620 
Q 972 3016 1650 3016 
Q 2072 3016 2572 2919 
L 2572 2100 
L 2400 2100 
L 2266 2619 
Q 2006 2766 1644 2766 
Q 806 2766 806 1491 
Q 806 828 1061 545 
Q 1316 263 1850 263 
Q 2306 263 2644 366 
L 2644 178 
z
" transform="scale(0.015625)"/>
       <path id="LiberationSerif-b2" d="M 1772 1672 
L 213 1672 
L 213 1972 
L 556 2284 
Q 869 2569 1011 2745 
Q 1153 2922 1214 3114 
Q 1275 3306 1275 3559 
Q 1275 4006 863 4006 
Q 672 4006 506 3903 
L 441 3597 
L 269 3597 
L 269 4134 
Q 613 4219 863 4219 
Q 1281 4219 1501 4045 
Q 1722 3872 1722 3559 
Q 1722 3256 1580 3018 
Q 1438 2781 1059 2453 
L 563 2009 
L 1772 2009 
L 1772 1672 
z
" transform="scale(0.015625)"/>
       <path id="NotoSerifSC-Regular-9608" d="M 1133 5402 
Q 1459 5306 1660 5178 
Q 1862 5050 1961 4915 
Q 2061 4781 2077 4665 
Q 2093 4550 2045 4473 
Q 1997 4397 1907 4381 
Q 1818 4365 1715 4429 
Q 1664 4582 1555 4752 
Q 1446 4922 1315 5082 
Q 1184 5242 1062 5350 
L 1133 5402 
z
M 1267 4461 
Q 1254 4390 1206 4345 
Q 1158 4301 1030 4282 
L 1030 -346 
Q 1030 -378 982 -413 
Q 934 -448 860 -473 
Q 787 -499 704 -499 
L 634 -499 
L 634 4531 
L 1267 4461 
z
M 5587 4870 
L 5587 4678 
L 2534 4678 
L 2477 4870 
L 5587 4870 
z
M 5312 4870 
L 5523 5133 
L 6061 4730 
Q 6029 4691 5952 4656 
Q 5875 4621 5779 4608 
L 5779 128 
Q 5779 -38 5734 -166 
Q 5690 -294 5542 -374 
Q 5395 -454 5082 -493 
Q 5069 -390 5033 -313 
Q 4998 -237 4928 -186 
Q 4845 -134 4704 -89 
Q 4563 -45 4320 -19 
L 4320 83 
Q 4320 83 4435 73 
Q 4550 64 4710 51 
Q 4870 38 5011 32 
Q 5152 26 5203 26 
Q 5312 26 5344 61 
Q 5376 96 5376 179 
L 5376 4870 
L 5312 4870 
z
M 4934 2925 
Q 4915 2874 4857 2835 
Q 4800 2797 4691 2803 
Q 4422 1856 3856 1165 
Q 3290 474 2445 109 
L 2374 198 
Q 3110 589 3619 1341 
Q 4128 2093 4339 3117 
L 4934 2925 
z
M 3923 4480 
Q 3917 4422 3869 4377 
Q 3821 4333 3712 4320 
Q 3712 3936 3734 3507 
Q 3757 3078 3805 2652 
Q 3853 2227 3949 1852 
Q 4045 1478 4201 1196 
Q 4358 915 4589 768 
Q 4653 736 4681 742 
Q 4710 749 4736 800 
Q 4787 890 4841 1053 
Q 4896 1216 4934 1357 
L 5018 1331 
L 4928 602 
Q 5011 499 5049 409 
Q 5088 320 5050 269 
Q 4998 205 4896 201 
Q 4794 198 4675 249 
Q 4557 301 4448 378 
Q 4154 557 3958 880 
Q 3763 1203 3641 1628 
Q 3520 2054 3456 2547 
Q 3392 3040 3363 3549 
Q 3334 4058 3322 4550 
L 3923 4480 
z
M 2662 2970 
L 2854 3168 
L 3270 2848 
Q 3213 2771 3066 2758 
L 3066 1651 
Q 3066 1632 3014 1600 
Q 2963 1568 2896 1542 
Q 2829 1517 2765 1517 
L 2714 1517 
L 2714 2970 
L 2662 2970 
z
M 2861 1926 
L 2861 1734 
L 1779 1734 
L 1779 1926 
L 2861 1926 
z
M 1939 1491 
Q 1939 1478 1897 1452 
Q 1856 1427 1789 1404 
Q 1722 1382 1645 1382 
L 1594 1382 
L 1594 2970 
L 1594 3142 
L 1594 3142 
L 1971 2970 
L 2861 2970 
L 2861 2784 
L 1939 2784 
L 1939 1491 
z
M 1235 915 
Q 1414 941 1724 998 
Q 2035 1056 2425 1133 
Q 2816 1210 3226 1286 
L 3245 1184 
Q 2970 1088 2566 941 
Q 2163 794 1626 614 
Q 1587 506 1498 474 
L 1235 915 
z
M 4742 3949 
Q 4742 3949 4822 3885 
Q 4902 3821 5011 3728 
Q 5120 3635 5203 3546 
Q 5184 3443 5037 3443 
L 1376 3443 
L 1325 3635 
L 4499 3635 
L 4742 3949 
z
M 4000 4499 
Q 4275 4429 4412 4326 
Q 4550 4224 4585 4118 
Q 4621 4013 4582 3933 
Q 4544 3853 4461 3833 
Q 4378 3814 4288 3885 
Q 4262 4032 4153 4195 
Q 4045 4358 3930 4454 
L 4000 4499 
z
" transform="scale(0.015625)"/>
       <path id="NotoSerifSC-Regular-503c" d="M 2272 5146 
Q 2246 5094 2188 5056 
Q 2131 5018 2022 5024 
Q 1811 4429 1536 3881 
Q 1261 3334 937 2870 
Q 614 2406 262 2054 
L 173 2112 
Q 442 2502 707 3027 
Q 973 3552 1203 4150 
Q 1434 4749 1587 5363 
L 2272 5146 
z
M 1651 3558 
Q 1638 3514 1590 3482 
Q 1542 3450 1453 3437 
L 1453 -339 
Q 1453 -358 1401 -393 
Q 1350 -429 1273 -457 
Q 1197 -486 1114 -486 
L 1030 -486 
L 1030 3469 
L 1222 3718 
L 1651 3558 
z
M 2509 3859 
L 2982 3654 
L 4890 3654 
L 5114 3942 
L 5670 3520 
Q 5638 3475 5564 3446 
Q 5491 3418 5376 3405 
L 5376 -147 
L 4960 -147 
L 4960 3462 
L 2912 3462 
L 2912 -147 
L 2509 -147 
L 2509 3654 
L 2509 3859 
z
M 5734 301 
Q 5734 301 5820 230 
Q 5907 160 6025 54 
Q 6144 -51 6234 -141 
Q 6208 -243 6074 -243 
L 1773 -243 
L 1722 -58 
L 5459 -58 
L 5734 301 
z
M 4346 5306 
Q 4339 5242 4284 5194 
Q 4230 5146 4134 5133 
Q 4122 4896 4093 4605 
Q 4064 4314 4045 4042 
Q 4026 3770 4000 3558 
L 3648 3558 
Q 3661 3776 3673 4086 
Q 3686 4397 3692 4733 
Q 3699 5069 3706 5363 
L 4346 5306 
z
M 5178 966 
L 5178 774 
L 2733 774 
L 2733 966 
L 5178 966 
z
M 5190 1869 
L 5190 1683 
L 2720 1683 
L 2720 1869 
L 5190 1869 
z
M 5210 2765 
L 5210 2573 
L 2707 2573 
L 2707 2765 
L 5210 2765 
z
M 5504 4915 
Q 5504 4915 5558 4870 
Q 5613 4826 5699 4755 
Q 5786 4685 5882 4605 
Q 5978 4525 6054 4442 
Q 6042 4339 5888 4339 
L 2061 4339 
L 2010 4531 
L 5190 4531 
L 5504 4915 
z
" transform="scale(0.015625)"/>
      </defs>
      <use xlink:href="#LiberationSerif-34"/>
      <use xlink:href="#LiberationSerif-30" transform="translate(50 0)"/>
      <use xlink:href="#LiberationSerif-20" transform="translate(100 0)"/>
      <use xlink:href="#LiberationSerif-6d" transform="translate(125 0)"/>
      <use xlink:href="#LiberationSerif-41" transform="translate(202.783203 0)"/>
      <use xlink:href="#LiberationSerif-2f" transform="translate(275 0)"/>
      <use xlink:href="#LiberationSerif-63" transform="translate(302.783203 0)"/>
      <use xlink:href="#LiberationSerif-6d" transform="translate(347.167969 0)"/>
      <use xlink:href="#LiberationSerif-b2" transform="translate(424.951172 0)"/>
      <use xlink:href="#NotoSerifSC-Regular-9608" transform="translate(454.931641 0)"/>
      <use xlink:href="#NotoSerifSC-Regular-503c" transform="translate(554.931625 0)"/>
     </g>
    </g>
    <g id="line2d_21">
     <path d="M 55.4525 36.386473 
L 65.4525 36.386473 
L 75.4525 36.386473 
" style="fill: none; stroke: #087f8c; stroke-width: 1.5; stroke-linecap: square"/>
     <g>
      <use xlink:href="#m3171398bd3" x="65.4525" y="36.386473" style="fill: #087f8c; stroke: #087f8c"/>
     </g>
    </g>
    <g id="text_20">
     <!-- 50 mA/cm²阈值 -->
     <g transform="translate(83.4525 39.886473) scale(0.1 -0.1)">
      <use xlink:href="#LiberationSerif-35"/>
      <use xlink:href="#LiberationSerif-30" transform="translate(50 0)"/>
      <use xlink:href="#LiberationSerif-20" transform="translate(100 0)"/>
      <use xlink:href="#LiberationSerif-6d" transform="translate(125 0)"/>
      <use xlink:href="#LiberationSerif-41" transform="translate(202.783203 0)"/>
      <use xlink:href="#LiberationSerif-2f" transform="translate(275 0)"/>
      <use xlink:href="#LiberationSerif-63" transform="translate(302.783203 0)"/>
      <use xlink:href="#LiberationSerif-6d" transform="translate(347.167969 0)"/>
      <use xlink:href="#LiberationSerif-b2" transform="translate(424.951172 0)"/>
      <use xlink:href="#NotoSerifSC-Regular-9608" transform="translate(454.931641 0)"/>
      <use xlink:href="#NotoSerifSC-Regular-503c" transform="translate(554.931625 0)"/>
     </g>
    </g>
    <g id="line2d_22">
     <path d="M 55.4525 50.606786 
L 65.4525 50.606786 
L 75.4525 50.606786 
" style="fill: none; stroke: #bd6a27; stroke-width: 1.5; stroke-linecap: square"/>
     <g>
      <use xlink:href="#me088ac469c" x="65.4525" y="50.606786" style="fill: #bd6a27; stroke: #bd6a27"/>
     </g>
    </g>
    <g id="text_21">
     <!-- 75 mA/cm²阈值 -->
     <g transform="translate(83.4525 54.106786) scale(0.1 -0.1)">
      <use xlink:href="#LiberationSerif-37"/>
      <use xlink:href="#LiberationSerif-35" transform="translate(50 0)"/>
      <use xlink:href="#LiberationSerif-20" transform="translate(100 0)"/>
      <use xlink:href="#LiberationSerif-6d" transform="translate(125 0)"/>
      <use xlink:href="#LiberationSerif-41" transform="translate(202.783203 0)"/>
      <use xlink:href="#LiberationSerif-2f" transform="translate(275 0)"/>
      <use xlink:href="#LiberationSerif-63" transform="translate(302.783203 0)"/>
      <use xlink:href="#LiberationSerif-6d" transform="translate(347.167969 0)"/>
      <use xlink:href="#LiberationSerif-b2" transform="translate(424.951172 0)"/>
      <use xlink:href="#NotoSerifSC-Regular-9608" transform="translate(454.931641 0)"/>
      <use xlink:href="#NotoSerifSC-Regular-503c" transform="translate(554.931625 0)"/>
     </g>
    </g>
   </g>
  </g>
 </g>
 <defs>
  <clipPath id="pfc647f894f">
   <rect x="46.4525" y="9.575536" width="447.92" height="165.519288"/>
  </clipPath>
 </defs>
</svg>
